<svg width="60" height="45" viewBox="0 0 60 45" fill="none" xmlns="http://www.w3.org/2000/svg">
<path d="M58.5489 9.36981L27.1227 43.4322C26.1798 44.4375 24.9159 45 23.6 45C22.2842 45 21.0203 44.4375 20.0774 43.4322L1.555 24.0569C0.587251 23.0391 0.0282735 21.6418 0.00104331 20.1726C-0.0261868 18.7033 0.480559 17.2824 1.4098 16.2224C2.33905 15.1624 3.61467 14.5501 4.95606 14.5203C6.29744 14.4905 7.5947 15.0455 8.56245 16.0634L23.5117 31.7738L51.4909 1.50075C52.4512 0.512315 53.7261 -0.0259027 55.0436 0.00095924C56.3611 0.0278212 57.6168 0.617635 58.5428 1.64453C59.4688 2.67142 59.9917 4.05406 59.9999 5.49737C60.0081 6.94068 59.501 8.33035 58.5868 9.36981H58.5489Z" fill="white"/>
</svg>
